# xmcd
#
# Track frame offsets: 
#        150
#        23325
#        39675
#        62325
#
# Disc length: 1139 seconds
#
# Revision: 0
# Processed by: cddbd v1.5.2PL0 Copyright (c) Steve Scherf et al.
# Submitted via: ExactAudioCopy v0.99pb3
#
DISCID=23047104
DTITLE=AYUSE KOZUE - When I wish upon a star
DYEAR=2007
DGENRE=JPop
TTITLE0=When I wish upon a star
TTITLE1=Goin' on (ex. mix)
TTITLE2=Sundae Love (chocolate sundae mix)
TTITLE3=When I wish upon a star (instrumental)
EXTD=
EXTT0=
EXTT1=
EXTT2=
EXTT3=
PLAYORDER=
